<svg xmlns="http://www.w3.org/2000/svg" version="1.1" xmlns:xlink="http://www.w3.org/1999/xlink" xmlns:svgjs="http://svgjs.dev/svgjs" viewBox="0 0 800 800"><defs><linearGradient x1="50%" y1="0%" x2="50%" y2="100%" id="uundulate-grad"><stop stop-color="hsl(37, 99%, 67%)" stop-opacity="1" offset="45%"></stop><stop stop-color="hsl(316, 73%, 52%)" stop-opacity="1" offset="100%"></stop></linearGradient></defs><g stroke-width="2" stroke="url(#uundulate-grad)" fill="none"><path d="M672.6456176711688 177.5784103541319C700.0448489454109 259.690366888367 481.51205735441545 571.5662460753064 369.7931335254675 638.1077072142318C258.07420969651946 704.6491683531572 163.79401456646042 579.0893803552083 136.39478329221834 496.9774238209732C108.99555201797625 414.86546728673807 126.55789958015782 310.51177698882793 238.27682340910582 243.9703158499026C349.9957472380538 177.4288547109772 645.2463863969268 95.46645381989686 672.6456176711688 177.5784103541319C700.0448489454109 259.690366888367 481.51205735441545 571.5662460753064 369.7931335254675 638.1077072142318 "></path><path d="M660.2526641801676 187.6885131283404C686.406475851035 266.06810800192847 477.80699296872126 563.7678108621888 371.16620204108904 627.284660131163C264.5254111134568 690.8015094001372 174.53067939840042 570.9489844930042 148.376867727533 492.56938961941614C122.22305605666554 414.18979474582807 138.98711509329337 314.5794540069139 245.6279060209256 251.06260473793964C352.2686969485578 187.5457554689654 634.0988525093001 109.30891825475237 660.2526641801676 187.6885131283404C686.406475851035 266.06810800192847 477.80699296872126 563.7678108621888 371.16620204108904 627.284660131163 "></path><path d="M647.859680171588 197.79857012618174C672.7680722390809 272.4458033391227 474.1018980654487 555.9693298727041 372.53924003913244 616.4615672717271C270.976582012816 676.9538046707502 185.2673137127623 562.808542854433 160.3589216452695 488.1613096414919C135.4505295777767 413.514076428551 151.41630008885085 318.6470852486327 252.9789581151672 258.1548478496096C354.5416161414836 197.6626104505865 622.9512881040953 123.15133691324075 647.859680171588 197.79857012618174C672.7680722390809 272.4458033391227 474.1018980654487 555.9693298727041 372.53924003913244 616.4615672717271 "></path><path d="M635.4666656454306 207.90865764160117C659.1296381095488 278.82352919389507 470.3967726445982 548.1708794007973 373.9122475195976 605.6385049298692C277.4277223945971 663.1061304589412 196.0039175095461 554.6681317334398 172.34094504542793 483.75326018114583C148.67797258130975 412.83838862885193 163.84545456683014 322.71474700792953 260.3299796918307 265.2471214788576C356.81450481683123 207.7794959497857 611.8036931813124 136.9937860893072 635.4666656454306 207.90865764160117C659.1296381095488 278.82352919389507 470.3967726445982 548.1708794007973 373.9122475195976 605.6385049298692 "></path><path d="M623.0737121544294 218.0187451570206C645.4912650151728 285.20125504866746 466.6917082589039 540.3724289288906 375.2853160352191 594.8154425880114C283.8789238115344 649.2584562471322 206.74058234148612 546.5277206124467 184.32302948074255 479.34521072079974C161.90547661999904 412.162700829153 176.27467007996574 326.78240876722646 267.6810623036505 272.33939510810563C359.08745452733524 217.89638144898487 600.6561592936857 150.83623526537372 623.0737121544294 218.0187451570206C645.4912650151728 285.20125504866746 466.6917082589039 540.3724289288906 375.2853160352191 594.8154425880114 "></path><path d="M610.6806976282719 228.1288021548619C631.8528308856407 291.57895038586173 462.9865828380533 532.5739479394058 376.6583235156844 583.9923497285754C290.3300641933155 635.4107515177451 217.47718613826987 538.3872789738755 196.30505288090097 474.9371307428755C175.13291962353208 411.4869825118758 188.7038245579451 330.8500400089452 275.032083880314 279.43163821977555C361.360343202683 228.01323643060596 589.5085643709028 164.67865392386204 610.6806976282719 228.1288021548619C631.8528308856407 291.57895038586173 462.9865828380533 532.5739479394058 376.6583235156844 583.9923497285754 "></path><path d="M598.2877136196923 238.2388896702813C618.2144272736866 297.9566762406341 459.2814879347809 524.7754974674991 378.0313615137278 573.1692873867175C296.7812350926747 621.5630773059361 228.21382045263175 530.2468678528824 208.28710679863747 470.52908128252943C188.36039314464324 410.81129471217673 201.13300955350252 334.91770176824207 282.38313597455567 286.5239118490236C363.63326239560877 238.1301219298051 578.360999965698 178.5211030999285 598.2877136196923 238.2388896702813C618.2144272736866 297.9566762406341 459.2814879347809 524.7754974674991 378.0313615137278 573.1692873867175 "></path><path d="M585.8947601286911 248.3489466681226C604.5760541793106 304.3343715778284 455.5764235490866 516.9770164780143 379.4044300293492 562.3461945272817C303.232436509612 607.715372576549 238.95048528457176 522.1064262143111 220.26919123395214 466.12100130460533C201.58789718333253 410.13557639489954 213.56222506663812 338.98533300996087 289.7342185863754 293.6161549606935C365.90621210611266 248.2469769114262 567.2134660780715 192.36352175841688 585.8947601286911 248.3489466681226C604.5760541793106 304.3343715778284 455.5764235490866 516.9770164780143 379.4044300293492 562.3461945272817 "></path><path d="M573.5017456025336 258.4590036659639C590.9376200497785 310.7120669150226 451.87129812823605 509.1785354885294 380.7774375098145 551.5231016678456C309.68357689139305 593.8676678471618 249.6870890813555 513.9659845757398 232.2512146341105 461.7129213266811C214.81534018686557 409.45985807762236 225.99137954461747 343.05296425167955 297.0852401630389 300.7083980723634C368.1791007814604 258.3638318930473 556.0658711552886 206.2059404169052 573.5017456025336 258.4590036659639C590.9376200497785 310.7120669150226 451.87129812823605 509.1785354885294 380.7774375098145 551.5231016678456 "></path><path d="M561.1087615939541 268.56907592259427C577.2992164378245 317.08977751100593 448.1662032249635 501.3800697578338 382.1504755078579 540.7000240671987C316.1347477907523 580.0199783765638 260.4237233957174 505.82555819595757 244.23326855184706 457.30485660754596C228.04281370797673 408.78415501913423 238.4205645401749 347.1206107521874 304.43629225728057 307.8006564428224C370.4520199743862 268.4807021334574 544.9183067500838 220.04837433418265 561.1087615939541 268.56907592259427C577.2992164378245 317.08977751100593 448.1662032249635 501.3800697578338 382.1504755078579 540.7000240671987 "></path><path d="M548.7158081029529 278.6791481792247C563.6608433434485 323.46748810698926 444.4611388392692 493.58160402713804 383.5235440234794 529.8769464665518C322.5859492076896 566.1722889059656 271.1603882276574 497.6851318161754 256.2153529871617 452.8967918884108C241.27031774666602 408.1084519606462 250.8497800533105 351.1882572526952 311.78737486910035 314.8929148132814C372.7249696848902 278.59757237386754 533.7707728624572 233.89080825146004 548.7158081029529 278.6791481792247C563.6608433434485 323.46748810698926 444.4611388392692 493.58160402713804 383.5235440234794 529.8769464665518 "></path><path d="M536.3227935767953 288.789205177066C550.0224092139164 329.8451834441835 440.75601341841866 485.78312303765324 384.8965515039447 519.0538536071159C329.03708958947067 552.3245841765786 281.89699202444115 489.54469017760414 268.1973763873201 448.4887119104866C254.49776075019906 407.43273364336903 263.27893453128985 355.25588849441397 319.1383964457639 321.9851579249513C374.99785836023784 288.71442735548857 522.6231779396744 247.73322690994843 536.3227935767953 288.789205177066C550.0224092139164 329.8451834441835 440.75601341841866 485.78312303765324 384.8965515039447 519.0538536071159 "></path><path d="M523.9298095682159 298.8992926924854C536.3840056019624 336.22290929895587 437.05091851514624 477.98467256574656 386.2695895019881 508.23079126525806C335.4882604888299 538.4769099647697 292.633626338803 481.404279056611 280.17943030505666 444.0806624501405C267.7252342713102 406.75704584367 275.70811952684727 359.3235502537109 326.48944854000547 329.07743155419934C377.27077755316367 298.8313128546878 511.4756135344695 261.5756760860149 523.9298095682159 298.8992926924854C536.3840056019624 336.22290929895587 437.05091851514624 477.98467256574656 386.2695895019881 508.23079126525806 "></path><path d="M511.5368560772147 309.0093802079048C522.7456325075864 342.60063515372826 433.34585412945194 470.1862220938399 387.64265801760956 497.4077289234002C341.9394619057672 524.6292357529607 303.37029117074303 473.2638679356179 292.1615147403713 439.6726129897944C280.9527383099995 406.081358043971 288.1373350399829 363.39121201300776 333.84053115182525 336.1697051834474C379.5437272636676 308.948198353887 500.32807964684287 275.4181252620814 511.5368560772147 309.0093802079048C522.7456325075864 342.60063515372826 433.34585412945194 470.1862220938399 387.64265801760956 497.4077289234002 "></path><path d="M499.14385680984617 319.1194372057461C509.1072136368433 348.97833049092253 429.64074396739045 462.387741104355 389.0156807568639 486.58463606396424C348.39061754633735 510.7815310235735 314.10691022631585 465.12342629704665 304.14355339931876 435.2645330118702C294.1801965723216 405.40563972669383 300.5665047767513 367.4588432547265 341.19156798727784 343.2619482951173C381.8166311978044 319.065053335508 489.180499982849 289.2605439205697 499.14385680984617 319.1194372057461C509.1072136368433 348.97833049092253 429.64074396739045 462.387741104355 389.0156807568639 486.58463606396424 "></path><path d="M486.7508728012667 329.22952472116555C495.4688100248893 355.3560563456949 425.935649064118 454.5892906324483 390.38871875490725 475.7615737221064C354.8417884456965 496.9338568117645 324.8435445406777 456.98301517605347 316.12560731705526 430.85648355152415C307.4076700934328 404.7299519269948 312.9956897723087 371.52650501402337 348.5426200815195 350.35422192436533C384.0895503907302 329.18193883470724 478.03293557764437 303.1029930966362 486.7508728012667 329.22952472116555C495.4688100248893 355.3560563456949 425.935649064118 454.5892906324483 390.38871875490725 475.7615737221064 "></path><path d="M474.3579193102655 339.33958171900684C481.8304369305133 361.73375168288914 422.23058467842367 446.79080964296355 391.76178727052877 464.9384808626704C361.2929898626339 483.08615208237734 335.5802093726178 448.8425735374822 328.10769175236993 426.44840357359993C320.6351741321221 404.05423360971764 325.4249052854443 375.5941362557421 355.8937026933392 357.4464650360352C386.36250010123416 339.29879381632827 466.88540169001766 316.94541175512455 474.3579193102655 339.33958171900684C481.8304369305133 361.73375168288914 422.23058467842367 446.79080964296355 391.76178727052877 464.9384808626704 "></path><path d="M461.964920042897 349.44963871684814C468.19201805977025 368.1114470200834 418.5254745163622 438.99232865347875 393.1348100097831 454.1153880032345C367.744145503204 469.2384473529903 346.3168284281906 440.702131898911 340.08973041131736 422.0403235956757C333.8626323944442 403.3785152924405 337.8540750222127 379.6617674974609 363.2447395287918 364.5387081477051C388.6354040353709 349.41564879794936 455.7378220260238 330.78783041361294 461.964920042897 349.44963871684814C468.19201805977025 368.1114470200834 418.5254745163622 438.99232865347875 393.1348100097831 454.1153880032345 "></path><path d="M449.5719360343176 359.5597262322676C454.5536144478162 374.4891728748558 414.82037961308976 431.193878181572 394.5078480078265 443.29232566137665C374.1953164025632 455.3907731411813 357.0534627425525 432.56172077791786 352.0717843290539 417.6322741353296C347.09010591555534 402.70282749274145 350.28326001777015 383.7294292567578 370.59579162303345 371.63098177695315C390.9083232282967 359.5325342971486 444.59025762081905 344.6302795896794 449.5719360343176 359.5597262322676C454.5536144478162 374.4891728748558 414.82037961308976 431.193878181572 394.5078480078265 443.29232566137665 "></path><path d="M437.1789520257382 369.6697832301089C440.9152108358621 380.86686821205006 411.11528470981733 423.3953971920872 395.88088600586985 432.4692328019407C380.6464873019224 441.54306841179414 367.79009705691436 424.42127913934655 364.0538382467904 413.22419415740546C360.3175794366665 402.02710917546426 362.7124450133276 387.7970604984765 377.9468437172751 378.72322488862306C393.1812424212225 369.6493892787696 433.4426932156143 358.4726982481678 437.1789520257382 369.6697832301089C440.9152108358621 380.86686821205006 411.11528470981733 423.3953971920872 395.88088600586985 432.4692328019407 "></path><path d="M424.7859680171588 379.7798554867393C427.2768072239081 387.24457880803334 407.41018980654485 415.5969314613915 397.25392400391326 421.6461552012938C387.0976582012816 427.6953789411961 378.52673137127624 416.28085275956437 376.03589216452696 408.8161294382703C373.54505295777767 401.3514061169762 375.1416300088851 391.8647069989844 385.2978958115167 385.81548325908204C395.45416161414835 379.76625951917975 422.29512881040955 372.31513216544516 424.7859680171588 379.7798554867393C427.2768072239081 387.24457880803334 407.41018980654485 415.5969314613915 397.25392400391326 421.6461552012938 "></path><path d="M412.3929840085794 389.88992774336964C413.63840361195406 393.62228940401667 403.7050949032724 407.79846573069574 398.6269620019566 410.8230776006469C393.5488291006408 413.8476894705981 389.2633656856381 408.1404263797822 388.01794608226345 404.40806471913515C386.77252647888884 400.6757030584881 387.5708150044425 395.9323534994922 392.64894790575835 392.907741629541C397.7270808070742 389.88312975958985 411.1475644052048 386.1575660827226 412.3929840085794 389.88992774336964C413.63840361195406 393.62228940401667 403.7050949032724 407.79846573069574 398.6269620019566 410.8230776006469 "></path></g></svg>